<svg width="159" height="41" viewBox="0 0 159 41" fill="#7653FC" xmlns="http://www.w3.org/2000/svg">
<path d="M71.14 21.26C71.14 23.48 70.77 25.42 70.03 27.08C69.31 28.72 68.2 30 66.7 30.92C65.2 31.84 63.28 32.3 60.94 32.3C58.62 32.3 56.7 31.84 55.18 30.92C53.68 30 52.56 28.71 51.82 27.05C51.1 25.39 50.74 23.45 50.74 21.23C50.74 19.01 51.1 17.08 51.82 15.44C52.56 13.8 53.68 12.53 55.18 11.63C56.7 10.71 58.63 10.25 60.97 10.25C63.29 10.25 65.2 10.71 66.7 11.63C68.2 12.53 69.31 13.81 70.03 15.47C70.77 17.11 71.14 19.04 71.14 21.26ZM55.51 21.26C55.51 23.5 55.94 25.27 56.8 26.57C57.66 27.85 59.04 28.49 60.94 28.49C62.88 28.49 64.27 27.85 65.11 26.57C65.95 25.27 66.37 23.5 66.37 21.26C66.37 19 65.95 17.23 65.11 15.95C64.27 14.67 62.89 14.03 60.97 14.03C59.05 14.03 57.66 14.67 56.8 15.95C55.94 17.23 55.51 19 55.51 21.26ZM101.594 10.58L96.134 32H90.974L88.064 20.75C88.004 20.53 87.924 20.2 87.824 19.76C87.744 19.32 87.644 18.84 87.524 18.32C87.424 17.8 87.334 17.31 87.254 16.85C87.174 16.37 87.114 16 87.074 15.74C87.054 16 86.994 16.37 86.894 16.85C86.814 17.31 86.724 17.8 86.624 18.32C86.524 18.82 86.424 19.3 86.324 19.76C86.224 20.2 86.144 20.54 86.084 20.78L83.204 32H78.044L72.584 10.58H77.054L79.784 22.28C79.904 22.74 80.034 23.32 80.174 24.02C80.314 24.72 80.444 25.42 80.564 26.12C80.684 26.82 80.774 27.41 80.834 27.89C80.894 27.39 80.984 26.8 81.104 26.12C81.224 25.42 81.344 24.75 81.464 24.11C81.604 23.45 81.724 22.94 81.824 22.58L84.944 10.58H89.234L92.354 22.58C92.454 22.92 92.564 23.42 92.684 24.08C92.824 24.74 92.954 25.42 93.074 26.12C93.194 26.82 93.284 27.41 93.344 27.89C93.404 27.39 93.494 26.8 93.614 26.12C93.734 25.42 93.864 24.72 94.004 24.02C94.164 23.32 94.294 22.74 94.394 22.28L97.124 10.58H101.594ZM104.288 32V10.58H108.818V28.25H117.518V32H104.288Z"/>
<path d="M128.352 29.4C128.72 29.4 129.056 29.376 129.36 29.328C129.68 29.28 129.968 29.208 130.224 29.112V29.904C129.968 30 129.68 30.08 129.36 30.144C129.04 30.208 128.68 30.24 128.28 30.24C127.176 30.24 126.384 29.928 125.904 29.304C125.424 28.68 125.184 27.768 125.184 26.568V18.096H123.264V17.472L125.184 17.256L125.472 14.184H126.12V17.28H130.152V18.096H126.12V26.496C126.12 27.44 126.28 28.16 126.6 28.656C126.936 29.152 127.52 29.4 128.352 29.4ZM143.403 23.64C143.403 24.92 143.195 26.056 142.779 27.048C142.379 28.04 141.763 28.824 140.931 29.4C140.099 29.96 139.059 30.24 137.811 30.24C136.611 30.24 135.595 29.96 134.763 29.4C133.947 28.84 133.323 28.064 132.891 27.072C132.475 26.08 132.267 24.936 132.267 23.64C132.267 21.608 132.763 20 133.755 18.816C134.763 17.632 136.155 17.04 137.931 17.04C139.195 17.04 140.227 17.328 141.027 17.904C141.827 18.48 142.419 19.264 142.803 20.256C143.203 21.248 143.403 22.376 143.403 23.64ZM133.227 23.64C133.227 25.352 133.603 26.744 134.355 27.816C135.107 28.872 136.259 29.4 137.811 29.4C138.883 29.4 139.763 29.16 140.451 28.68C141.139 28.184 141.643 27.504 141.963 26.64C142.283 25.776 142.443 24.776 142.443 23.64C142.443 22.552 142.291 21.576 141.987 20.712C141.683 19.848 141.195 19.16 140.523 18.648C139.867 18.136 139.003 17.88 137.931 17.88C136.411 17.88 135.243 18.392 134.427 19.416C133.627 20.424 133.227 21.832 133.227 23.64ZM152.452 17.04C154.116 17.04 155.388 17.592 156.268 18.696C157.164 19.8 157.612 21.416 157.612 23.544C157.612 25.688 157.14 27.344 156.196 28.512C155.252 29.664 153.94 30.24 152.26 30.24C151.06 30.24 150.1 29.968 149.38 29.424C148.676 28.88 148.18 28.224 147.892 27.456H147.844C147.86 27.936 147.868 28.432 147.868 28.944C147.884 29.44 147.892 29.92 147.892 30.384V35.616H146.98V17.28H147.748L147.844 20.064H147.892C148.084 19.536 148.38 19.048 148.78 18.6C149.18 18.136 149.684 17.76 150.292 17.472C150.9 17.184 151.62 17.04 152.452 17.04ZM152.38 17.88C150.892 17.88 149.772 18.376 149.02 19.368C148.284 20.344 147.908 21.736 147.892 23.544V23.688C147.892 25.624 148.268 27.064 149.02 28.008C149.772 28.936 150.836 29.4 152.212 29.4C153.62 29.4 154.708 28.896 155.476 27.888C156.26 26.88 156.652 25.432 156.652 23.544C156.652 19.768 155.228 17.88 152.38 17.88Z"/>
<path d="M41 3.17946C41 2.52815 40.4622 2.00012 39.7988 2.00012C39.1355 2.00012 38.5977 2.52815 38.5977 3.17946C38.5977 4.45809 37.4609 5.5382 36.1152 5.5382H30.6968C27.6077 3.99446 24.0892 3.17954 20.5 3.17954C16.9108 3.17954 13.3923 3.99446 10.3032 5.5382H4.89942C3.54586 5.53828 2.40234 4.45809 2.40234 3.17946C2.40234 2.52815 1.86454 2.00012 1.20117 2.00012C0.537805 2.00012 0 2.52815 0 3.17946V6.71754C0 8.90552 0.88198 10.9673 2.48386 12.5291C0.856035 15.1418 0 18.0046 0 20.8696C0 30.6239 9.19625 38.5597 20.5 38.5597C31.8037 38.5597 41 30.6239 41 20.8696C41 18.009 40.1464 15.1501 38.523 12.5403C40.0529 11.0464 41 8.9876 41 6.71762V3.17946ZM20.5001 5.53828C22.4136 5.53828 24.3025 5.79648 26.0992 6.29581C24.7576 6.82368 23.5262 7.61808 22.474 8.65267C21.6723 9.44101 21.0131 10.3315 20.5074 11.2937C20.0017 10.3315 19.3425 9.44101 18.5407 8.65267C17.487 7.61651 16.2535 6.82132 14.9094 6.29345C16.7036 5.79569 18.5895 5.53828 20.5001 5.53828ZM20.5 25.1175C20.9492 25.8495 21.5108 26.5076 22.1611 27.0691L20.5 30.1453L18.8389 27.069C19.4892 26.5076 20.0508 25.8494 20.5 25.1175ZM13.293 26.7663C9.98134 26.7663 7.28711 24.1211 7.28711 20.8696C7.28711 17.6182 9.98134 14.973 13.293 14.973C16.6046 14.973 19.2988 17.6182 19.2988 20.8696C19.2988 24.1211 16.6046 26.7663 13.293 26.7663ZM21.7012 20.8696C21.7012 20.7758 21.704 20.6827 21.7084 20.5899C21.7167 20.5335 21.7225 20.4763 21.7223 20.4176V20.3951C21.9695 17.365 24.5582 14.973 27.707 14.973C31.0187 14.973 33.7129 17.6182 33.7129 20.8696C33.7129 24.1211 31.0187 26.7663 27.707 26.7663C24.3954 26.7663 21.7012 24.1211 21.7012 20.8696ZM2.42621 7.24148C3.17278 7.66887 4.0212 7.89695 4.89942 7.89695H10.5791H10.585H10.8906C13.139 7.89695 15.2521 8.75724 16.8407 10.3193C18.1513 11.6081 18.9743 13.2467 19.2204 15.0203C17.8662 13.6974 16.0568 12.8238 14.0459 12.6478C13.956 12.6266 13.8626 12.6143 13.7661 12.6143H8.50286C7.1907 12.6143 5.97455 12.211 4.97846 11.5271C4.91423 11.4543 4.84104 11.3872 4.7568 11.3298C4.70067 11.2915 4.64205 11.2598 4.58223 11.232C3.3801 10.2551 2.57227 8.83877 2.42621 7.24148ZM38.5977 20.8696C38.5977 29.3233 30.4791 36.201 20.5 36.201C10.5209 36.201 2.40234 29.3233 2.40234 20.8696C2.40234 18.51 3.09582 16.1388 4.41687 13.9493C5.36259 14.4581 6.39808 14.7857 7.47769 14.9128C5.88062 16.4163 4.88477 18.5309 4.88477 20.8696C4.88477 25.4216 8.65668 29.125 13.293 29.125C14.5513 29.125 15.7457 28.8517 16.8185 28.3632L19.4387 33.2155C19.6471 33.6012 20.0553 33.8424 20.5 33.8424C20.9447 33.8424 21.3529 33.6012 21.5613 33.2155L24.1815 28.3632C25.2543 28.8517 26.4488 29.125 27.707 29.125C32.3433 29.125 36.1152 25.4216 36.1152 20.8696C36.1152 18.5316 35.1199 16.4176 33.5237 14.9141C34.6228 14.7865 35.6581 14.4541 36.5878 13.9569C37.9058 16.1444 38.5977 18.513 38.5977 20.8696ZM36.3987 11.251C36.3475 11.2761 36.2972 11.3037 36.2489 11.3366C36.1712 11.3896 36.1028 11.4507 36.042 11.5168C35.0456 12.2069 33.8271 12.6142 32.5117 12.6142H27.2484C27.1547 12.6142 27.0639 12.6258 26.9764 12.6457C24.9648 12.8166 23.1538 13.6854 21.7964 15.0041C22.0453 13.2367 22.8673 11.6041 24.1739 10.3192C25.7625 8.75716 27.8756 7.89687 30.1239 7.89687H30.3957C30.3984 7.89687 30.401 7.89711 30.4037 7.89711C30.406 7.89711 30.4083 7.89687 30.4106 7.89687H36.1152C36.9885 7.89687 37.8315 7.67099 38.5732 7.24777C38.425 8.85308 37.6096 10.2747 36.3987 11.251Z"/>
<path d="M13.5 18.119L14.5103 20.71H17.7798L15.1347 22.3113L16.145 24.9023L13.5 23.301L10.855 24.9023L11.8653 22.3113L9.22025 20.71H12.4897L13.5 18.119Z"/>
<path d="M27.5 18.119L28.5103 20.71H31.7798L29.1347 22.3113L30.145 24.9023L27.5 23.301L24.855 24.9023L25.8653 22.3113L23.2202 20.71H26.4897L27.5 18.119Z"/>
</svg>
